# xmcd CD database file
#
# Track frame offsets:
#	182
#	19982
#	48942
#	70942
#	90347
#	115105
#	137550
#	156537
#	186010
#	206577
#	231750
#	252832
#	267552
#	287632
#
# Disc length: 4143 seconds
#
# Revision: 1
# Processed by: cddbd v1.5.2PL0 Copyright (c) Steve Scherf et al.
# Submitted via: CDex 1.70beta2
#
DISCID=c6102d0e
DTITLE=Fania All Stars - Constelacion de Estrellas
DYEAR=1997
DGENRE=Salsa
TTITLE0=Los compadres seguiran/Johny Pacheco
TTITLE1=Paula C./Ruben Blades
TTITLE2=Los Fariseos/Richie Ray - Bobby Cruz
TTITLE3=Señora/Willie Colon
TTITLE4=Ay, Caray/Adalberto Santiago
TTITLE5=Los Entierros/Cheo Feliciano
TTITLE6=De todas maneras Rosas/Ismael Rivera
TTITLE7=La Cartera/ Larry Harlow
TTITLE8=Palo de Mango/Eddie Palmieri
TTITLE9=Asi se compone un  son/Ismael Miranda
TTITLE10=Mujer Divina/Joe Cuba
TTITLE11=Tatalibaba/Celia Cruz
TTITLE12=I like like that/Pete Rodriguez
TTITLE13=Diez Lagrimas/Hermanos Lebron
EXTD=YEAR: 1997
EXTT0=
EXTT1=
EXTT2=
EXTT3=
EXTT4=
EXTT5=
EXTT6=
EXTT7=
EXTT8=
EXTT9=
EXTT10=
EXTT11=
EXTT12=
EXTT13=
PLAYORDER=
